<svg width="64" height="64" viewBox="0 0 64 64" fill="none" xmlns="http://www.w3.org/2000/svg">
<path d="M55 20L44 9H28V28H9V44L20 55H55V20Z" fill="#8b909a"/>
<path d="M55 20L44 9H28V28V28.5L39 39.5H55V20Z" fill="#656b7a"/>
<path d="M28 9H9V28L15 34H34V15L28 9Z" fill="#4fb3ec"/>
<path d="M38 40H54" stroke="#F2F2F2" stroke-width="2"/>
<path d="M21 55V40H40V21H55" stroke="#F2F2F2" stroke-width="2"/>
<path d="M40 21L28 9" stroke="#F2F2F2" stroke-width="2"/>
<path d="M40 40L34 34" stroke="#F2F2F2" stroke-width="2"/>
<path d="M21 40L9 28" stroke="#F2F2F2" stroke-width="2"/>
<path d="M55 20L44 9H9V44L20 55H55V20Z" stroke="#F2F2F2" stroke-width="4"/>
<path d="M16 34V16H34" stroke="#F2F2F2" stroke-width="2"/>
<path d="M34 16L34 34L16 34" stroke="#F2F2F2" stroke-width="2"/>
<path d="M9 9L16 16" stroke="#F2F2F2" stroke-width="2"/>
</svg>
